PathFileType	4	(X/Y/Z)	path1_07_0-560.trc
DataRate	CameraRate	NumFrames	NumMarkers	Units	OrigDataRate	OrigDataStartFrame	OrigNumFrames
30	30	7	22	m	30	350	560
Frame#	Time	Hip			RHip			RKnee			RAnkle			RBigToe			RSmallToe			RHeel			LHip			LKnee			LAnkle			LBigToe			LSmallToe			LHeel			Neck			Head			Nose			RShoulder			RElbow			RWrist			LShoulder			LElbow			LWrist		
		X1	Y1	Z1	X2	Y2	Z2	X3	Y3	Z3	X4	Y4	Z4	X5	Y5	Z5	X6	Y6	Z6	X7	Y7	Z7	X8	Y8	Z8	X9	Y9	Z9	X10	Y10	Z10	X11	Y11	Z11	X12	Y12	Z12	X13	Y13	Z13	X14	Y14	Z14	X15	Y15	Z15	X16	Y16	Z16	X17	Y17	Z17	X18	Y18	Z18	X19	Y19	Z19	X20	Y20	Z20	X21	Y21	Z21	X22	Y22	Z22
351	11.7	2.6863848674510415	0.8221823383797565	0.8613431780122087	2.697011654652192	0.7934260193454801	0.7759036066735991	2.656619631530822	0.45942761829966716	0.7746669687831235	2.777713054995799	0.09662303939276884	0.8197548847949646	2.5833260217583276	0.025517013491653213	0.7748578610114597	2.617264612981814	0.01942214642349637	0.7224830771047779	2.8261938187992524	0.023183497955806293	0.8065415184414768	2.652700930265665	0.7991112264193796	0.9437014761960174	2.5617396703308337	0.4735546294860174	0.9721442483040524	2.704631118208713	0.1326206976377189	0.9728006374437635	2.5658681513437687	0.023009930970772197	1.0099573051753359	2.589298360178186	0.03803344177602602	1.0572805271379642	2.7729419689320927	0.06179725331186508	0.9630495580403106	2.6025258272245275	1.4310993971224018	0.8493972947187257	2.532896740145877	1.6885678620228872	0.8036989460450646	2.463230549564559	1.5697823297902933	0.8256609404282961	2.659004079509575	1.3377364173632789	0.6859683338521536	2.6517584322397054	1.0484414409689355	0.6270508914623368	2.6228121508473814	0.8167913857647957	0.5991115368779147	2.6593485112577153	1.339510233706709	0.9971077747522303	2.7157139276947078	1.0503411535980114	1.0410293760493643	2.725023346591632	0.8198701903073835	1.0417324144482187
352	11.733333333333333	2.6805050969828494	0.8231377099421258	0.859999352018607	2.695204241493532	0.7952991300204441	0.7742214717117483	2.6604492158786552	0.45415413333632204	0.7735027008798849	2.775603556066709	0.09787196656750505	0.8172257356626403	2.5866710377847704	0.024640895815425196	0.7763964947921027	2.618906327673849	0.019359183964762182	0.7243390241586014	2.825871750430996	0.023364870173429173	0.8065041997848661	2.6428909648702223	0.8023748705515679	0.9425408744863608	2.526520390934179	0.48710328579396284	0.9647768093773356	2.679700144946341	0.13942486708813176	0.9720234922766029	2.538179180189232	0.027786836081824345	1.0073371930757264	2.557907350994586	0.04434561765977743	1.0551356052620018	2.7530445876135783	0.06806096732903529	0.9633661000219036	2.5943694697275834	1.4270700545626702	0.845367954106181	2.520649096264828	1.688502692623882	0.8033813572908146	2.455667068159001	1.5672002873438746	0.8244765932882511	2.643900683747217	1.333471753081637	0.6783273373721018	2.639727854787745	1.0464663048711271	0.6233603001343616	2.601311518142367	0.8168726231292289	0.5944082615765531	2.6552782286182572	1.3410405880778427	0.9931509654129549	2.7078338458284703	1.0502956800154195	1.0373464011955296	2.724149928579533	0.8196423824622728	1.0380802991135092
353	11.766666666666667	2.67339866770148	0.8241443902443519	0.8592260077347285	2.6917352742247864	0.7972975971209104	0.7733600593052157	2.6665971011776834	0.4479207921143692	0.7723421935716119	2.7728045725117223	0.09878347468263433	0.8143793113973417	2.590409905302282	0.02372259503358781	0.7792589405007594	2.6210104094352653	0.019415582633420074	0.7270478723917206	2.8249532390967955	0.023793702592762762	0.8082741946725424	2.632918153427822	0.8054682989090295	0.9418848254705412	2.4990031923226095	0.4961650880357074	0.9589719127435867	2.6472757111017575	0.1437645952203587	0.9704201898893979	2.5022385693652724	0.03201385392260555	1.0044295099757543	2.5198427968502353	0.04898384509025918	1.0528283024091651	2.7211664385088263	0.07200294300374924	0.9632817054949003	2.5851338043858814	1.4238119034609928	0.8420781384138932	2.506686028753265	1.6870014384011542	0.805697813768666	2.447181640335746	1.5645566856112647	0.8238556684113381	2.626339624124624	1.3295178687536473	0.6712391775234131	2.625870564631009	1.0454078470982573	0.6206821480651722	2.577107619672764	0.8176307003217893	0.5909882649128789	2.6491938048258654	1.3427484240629795	0.9907769650684009	2.6997946243808046	1.0511383815072508	1.0349043329516463	2.7231854712873917	0.8202026735310909	1.0347249572513122
354	11.8	2.665280959339335	0.8248607278688428	0.8589643940535779	2.686245885789467	0.7985522638890978	0.7734972285474081	2.67222866590764	0.44213653220719784	0.7715372650597212	2.769514750439053	0.09930046914538015	0.8115328751528407	2.5937501047968947	0.02300245556307885	0.7838507687819697	2.6235745884587094	0.01945760298433332	0.7306166106594197	2.823788790831602	0.024350370181217718	0.8115558528482283	2.6228167431885914	0.8076231604059375	0.9417875938113771	2.4798166776634547	0.5004559683469615	0.9553903356758287	2.608242041732743	0.14533764762244952	0.9688163090655869	2.4583945316969595	0.035401109406742695	1.002100577273241	2.4751977587234246	0.05179776184075035	1.0511610264591382	2.6778581303088322	0.07323437058615243	0.9630584042313335	2.5748106756702294	1.4215956595770989	0.8397424010108565	2.491334999335541	1.6833797095111542	0.8099807631859132	2.43724406145443	1.562035363490471	0.823063812437753	2.60798232469718	1.326213776049276	0.6656935516472196	2.6101446512315265	1.0450851827126935	0.6191473137639495	2.5505386497694182	0.8188867092921497	0.5890759909692567	2.6414402149381333	1.344217482826167	0.9892618407228697	2.6919315104407455	1.0526615280603477	1.0336895267989794	2.7217762170411817	0.8213338079618544	1.032220063208112
355	11.833333333333334	2.6562511916865055	0.8249958163041446	0.8589984729990607	2.678527434816607	0.7987824500288531	0.7744997550173108	2.67509123714067	0.43788201312698644	0.7713464302976057	2.7660460603626666	0.09944511380828779	0.8090701577269594	2.5958994289292274	0.022542717532958917	0.7900462262767485	2.6264784073981495	0.019142459286994266	0.7349085770545927	2.822732260831308	0.024849958738146383	0.815841310980755	2.612257017319134	0.8085484547981697	0.9421319496686168	2.4670763259649737	0.5008755900231359	0.9538497968841653	2.564434577083175	0.1445144818695937	0.9680849668891639	2.408786208655483	0.03797902491505644	1.00102233202584	2.4255463172872638	0.05323917795064744	1.0507800129897567	2.626308485406416	0.07196253052423612	0.9630442359607534	2.5632980693592518	1.4201380956039782	0.8383412739513407	2.4758125149866026	1.6791918435240956	0.814305607234193	2.425566768410434	1.5596627354300547	0.8218292258649211	2.589927696722534	1.3236348046073507	0.6622767520498503	2.592577562435604	1.045098170186498	0.6187959205497687	2.5221657305667997	0.8204617386627768	0.588748137534545	2.632128230806008	1.3451357088456772	0.9882326045642402	2.683708341897525	1.054472957243252	1.033631648784606	2.719410465791358	0.8225622930988912	1.0311275022400574
356	11.866666666666667	2.646135445711559	0.8244450932296454	0.8591187382635331	2.6685572613403665	0.7981471810483812	0.7759667552929534	2.6745636594718776	0.4355853009608551	0.7718583742373906	2.763040186996538	0.0991543709986317	0.8075292179875521	2.5963112522294605	0.02213086803741037	0.7965774806590624	2.629502733279137	0.017986364179841723	0.7394008451789791	2.82199879015945	0.025201977400379317	0.8203299943918493	2.60072183247302	0.8083351254000105	0.9427076296244282	2.4580282177692716	0.49857212176122356	0.9539210183791913	2.517979480267106	0.14230835200069242	0.9686634568222844	2.356753436640826	0.04006711531987474	1.0010611752426561	2.373697171570222	0.05408056681203929	1.0517018477520763	2.5710398224414783	0.06887774974843407	0.9634548166517036	2.55055940974505	1.418986498244198	0.8378516268811159	2.4616887980960835	1.677195308472133	0.8164774883981069	2.4120444134238443	1.5573052842421702	0.8206508454161277	2.5722283623467126	1.3215765336975172	0.6609859248745427	2.5732565325321213	1.0450334482795864	0.6195672305604757	2.492693504545852	0.8221058667852679	0.5899357437054157	2.6211482986997514	1.3453886771251704	0.987739223540768	2.6741661775207226	1.0561470921066638	1.0346450134971892	2.7154305381181683	0.8234431255826489	1.0318063988746693
357	11.9	2.634539024278244	0.8232613393587689	0.8593277075625128	2.656529974955226	0.7968939656148669	0.7774822928730998	2.671241644397265	0.4352841860435399	0.7730782461787735	2.7611968908789657	0.09826946040029086	0.8073698745848468	2.59456032683407	0.021521241946602213	0.8015846157542158	2.6322825165309935	0.01562254790000891	0.7430835760066358	2.821661543836951	0.025345579735022612	0.8242806847204455	2.587827879132496	0.807184217847356	0.9433887124967962	2.4501832792372618	0.4945329127085902	0.9552199764999763	2.471322552312025	0.13985860380485507	0.9703767176212865	2.305740284172688	0.042262532148998534	1.001411713400686	2.3229557821906357	0.05503523698461549	1.053326426866748	2.516414329811759	0.06505016174196546	0.9643085463606792	2.5365400561316678	1.417806172033439	0.8383398640778028	2.4494972569643325	1.6787298183997494	0.8159023562570225	2.396608252915785	1.5548304270850428	0.8205755999704387	2.5543965504786716	1.319810238826122	0.6614830415288906	2.5523867152393693	1.0446756455452373	0.6213155824634771	2.4627548993704083	0.8235527783776783	0.5925188005626136	2.6082596838380696	1.345013916663104	0.9881082030048818	2.6625255365052705	1.0573559219588369	1.0365626697186607	2.7091846171431158	0.8237643302926138	1.0342861427642855
